<svg width="110" height="45" viewBox="0 0 110 45" fill="none" xmlns="http://www.w3.org/2000/svg">
<g clip-path="url(#clip0_212_40)">
<path d="M97.6477 10.626L101.933 19.9377C102.284 20.8762 101.161 21.1804 101.161 21.1804H88.7478L88.0088 22.3356L105.326 22.746L99.7528 10.7236L97.6477 10.626Z" fill="#0098DD"/>
<path d="M36.7749 0.0026488H85.3727C85.3727 0.0026488 90.4067 -0.314487 88.6603 4.98354L81.8512 34.8C81.8512 34.8 81.1595 38.554 77.3912 38.3229C71.9813 37.99 45.9302 38.3229 45.9302 38.3229C45.9302 38.3229 46.5961 31.8755 40.7111 31.7047C36.3703 31.5784 33.4874 34.9837 32.0796 38.531H28.0702C28.0702 38.531 24.3665 39.0576 25.8675 35.054L26.4688 33.3033H3.65224C2.76828 33.3033 2.05078 31.8353 2.05078 30.9513C2.05078 30.0659 2.76828 28.8993 3.65224 28.8993H33.529C34.4144 28.8993 35.1304 27.7312 35.1304 26.8472C35.1304 25.9633 34.4129 24.6947 33.529 24.6947H16.2602C15.3748 24.6947 14.6587 23.5281 14.6587 22.6441C14.6587 21.7587 15.5197 20.7915 16.4094 20.7915L34.5765 20.5418C35.2267 20.5414 35.8501 20.2829 36.3097 19.823C36.7693 19.3631 37.0275 18.7396 37.0275 18.0894V18.0894C37.0275 17.4392 36.7693 16.8157 36.3097 16.3558C35.8501 15.8959 35.2267 15.6374 34.5765 15.637H9.3779C8.86715 15.637 8.37732 15.4341 8.01617 15.0729C7.65502 14.7118 7.45213 14.222 7.45213 13.7112V13.7112C7.45194 13.4582 7.50161 13.2076 7.59831 12.9738C7.695 12.74 7.83682 12.5275 8.01566 12.3486C8.19451 12.1696 8.40687 12.0276 8.64061 11.9307C8.87434 11.8339 9.12488 11.784 9.3779 11.784H36.828C37.4518 11.784 38.05 11.5362 38.4911 11.0951C38.9322 10.6541 39.18 10.0558 39.18 9.43204V9.43204C39.18 8.80826 38.9322 8.21003 38.4911 7.76895C38.05 7.32787 37.4518 7.08008 36.828 7.08008H17.312C17.0425 7.08008 16.7757 7.027 16.5267 6.92387C16.2778 6.82075 16.0515 6.66959 15.861 6.47904C15.6704 6.28849 15.5193 6.06227 15.4162 5.81331C15.313 5.56434 15.26 5.2975 15.26 5.02802V5.02802C15.26 4.48378 15.4762 3.96184 15.861 3.577C16.2458 3.19217 16.7678 2.97597 17.312 2.97597H32.523C32.523 2.1874 32.8363 1.43112 33.3939 0.873514C33.9515 0.315908 34.7078 0.0026488 35.4964 0.0026488H36.7749Z" fill="url(#paint0_linear_212_40)"/>
<path d="M109.336 21.7764L101.687 10.4513C101.332 9.92587 100.854 9.49551 100.294 9.19803C99.7341 8.90054 99.1097 8.74502 98.4757 8.74512H90.1355C89.7839 8.74512 89.4428 8.86455 89.168 9.08381C88.8932 9.30307 88.701 9.60917 88.623 9.95195L82.7796 35.726C82.7282 35.9529 82.7284 36.1884 82.7804 36.4152C82.8323 36.6419 82.9347 36.8541 83.0798 37.0359C83.225 37.2177 83.4092 37.3645 83.6188 37.4654C83.8284 37.5663 84.0581 37.6187 84.2907 37.6188H88.8927C88.8927 37.6188 89.837 31.8946 96.7566 31.7683C103.676 31.642 102.04 37.6188 102.04 37.6188H103.815C104.689 37.6187 105.536 37.3235 106.221 36.7812C106.905 36.2389 107.387 35.4812 107.586 34.6311L109.901 24.8329C110.023 24.312 110.036 23.7715 109.938 23.2455C109.841 22.7194 109.636 22.2192 109.336 21.7764V21.7764ZM101.373 21.729H90.299C90.0651 21.729 89.8342 21.6761 89.6237 21.5742C89.4131 21.4723 89.2284 21.324 89.0833 21.1405C88.9382 20.9571 88.8365 20.7431 88.7859 20.5147C88.7352 20.2864 88.7369 20.0495 88.7909 19.8219L90.5286 12.446C90.6094 12.1061 90.8026 11.8034 91.0768 11.587C91.3511 11.3706 91.6904 11.2531 92.0397 11.2535H97.9519C98.2476 11.2533 98.5372 11.3378 98.7864 11.497C99.0356 11.6562 99.2341 11.8834 99.3582 12.1518L102.779 19.5205C102.89 19.757 102.939 20.0176 102.922 20.2782C102.905 20.5387 102.823 20.7908 102.683 21.011C102.542 21.2312 102.349 21.4125 102.12 21.538C101.891 21.6635 101.634 21.7292 101.373 21.729Z" fill="url(#paint1_linear_212_40)"/>
<path d="M8.90369 3.08936H5.10668C4.55588 3.08934 4.02503 3.29556 3.61867 3.66739C3.21232 4.03922 2.9599 4.54972 2.91113 5.09836V5.09836C2.88383 5.40318 2.92031 5.71035 3.01825 6.0003C3.11619 6.29025 3.27343 6.55662 3.47997 6.78246C3.6865 7.0083 3.93781 7.18866 4.21788 7.31204C4.49794 7.43543 4.80064 7.49914 5.10668 7.49911H8.90369C9.44146 7.49877 9.96062 7.30223 10.3638 6.94635C10.7669 6.59048 11.0264 6.09973 11.0935 5.56617C11.1317 5.25596 11.1036 4.94118 11.011 4.64266C10.9184 4.34413 10.7635 4.06868 10.5565 3.83452C10.3495 3.60036 10.0951 3.41285 9.81014 3.28439C9.52521 3.15593 9.21624 3.08945 8.90369 3.08936Z" fill="url(#paint2_linear_212_40)"/>
<path d="M6.0065 20.5391H2.20518C1.65437 20.5391 1.12353 20.7453 0.71717 21.1171C0.310813 21.4889 0.0583973 21.9994 0.00962823 22.5481V22.5481C-0.0174566 22.853 0.0192177 23.1602 0.117321 23.4501C0.215425 23.7401 0.372809 24.0064 0.579457 24.2322C0.786106 24.4581 1.03749 24.6384 1.31763 24.7617C1.59777 24.8851 1.90052 24.9488 2.20661 24.9488H6.0065C6.54279 24.9478 7.06035 24.7515 7.46234 24.3965C7.86434 24.0415 8.12323 23.5522 8.19057 23.0202V23.0202C8.22961 22.7101 8.2023 22.3952 8.11045 22.0965C8.0186 21.7977 7.86431 21.5219 7.65779 21.2873C7.45128 21.0527 7.19726 20.8647 6.91258 20.7357C6.62789 20.6067 6.31904 20.5397 6.0065 20.5391V20.5391Z" fill="url(#paint3_linear_212_40)"/>
<path d="M43.06 33.8805C40.9778 32.048 37.4261 32.6808 35.1244 35.2939C32.8227 37.9071 32.6462 41.5118 34.7283 43.3443C36.8105 45.1768 40.3636 44.5454 42.6639 41.9323C44.9642 39.3191 45.1421 35.7144 43.06 33.8805ZM40.863 40.3466C39.6619 41.7113 37.8064 42.0413 36.7187 41.0842C35.631 40.127 35.7242 38.2443 36.9253 36.8796C38.1264 35.5149 39.9833 35.1849 41.0696 36.142C42.1559 37.0992 42.0641 38.9819 40.863 40.3466Z" fill="#0098DD"/>
<path d="M99.2118 33.8805C97.1296 32.048 93.5766 32.6808 91.2762 35.2939C88.9759 37.9071 88.798 41.5118 90.8802 43.3443C92.9624 45.1768 96.514 44.5454 98.8157 41.9323C101.117 39.3191 101.291 35.7144 99.2118 33.8805ZM97.0148 40.3466C95.8123 41.7113 93.9568 42.0413 92.8705 41.0842C91.7842 40.127 91.8761 38.2443 93.0772 36.8796C94.2783 35.5149 96.1337 35.1849 97.2215 36.142C98.3092 37.0992 98.2159 38.9819 97.0148 40.3466Z" fill="#0098DD"/>
</g>
<defs>
<linearGradient id="paint0_linear_212_40" x1="2.04648" y1="19.2761" x2="89.0276" y2="19.2761" gradientUnits="userSpaceOnUse">
<stop offset="0.01" stop-color="#B9E5F5"/>
<stop offset="1" stop-color="#61B5E5"/>
</linearGradient>
<linearGradient id="paint1_linear_212_40" x1="95.8267" y1="12.8736" x2="96.6948" y2="40.1157" gradientUnits="userSpaceOnUse">
<stop offset="0.01" stop-color="#B9E5F5"/>
<stop offset="1" stop-color="#61B5E5"/>
</linearGradient>
<linearGradient id="paint2_linear_212_40" x1="2.90252" y1="5.29495" x2="11.1107" y2="5.29495" gradientUnits="userSpaceOnUse">
<stop offset="0.01" stop-color="#B9E5F5"/>
<stop offset="1" stop-color="#61B5E5"/>
</linearGradient>
<linearGradient id="paint3_linear_212_40" x1="-0.000416994" y1="22.7461" x2="8.20779" y2="22.7461" gradientUnits="userSpaceOnUse">
<stop offset="0.01" stop-color="#B9E5F5"/>
<stop offset="1" stop-color="#61B5E5"/>
</linearGradient>
<clipPath id="clip0_212_40">
<rect width="110" height="44.3932" fill="white"/>
</clipPath>
</defs>
</svg>
