<svg width="1995" height="1128" viewBox="0 0 1995 1128" fill="none" xmlns="http://www.w3.org/2000/svg">
<rect x="40" y="658" width="1920" height="449" fill="#0D62F8"/>
<path opacity="0.11" d="M1983 468.234C1983 468.234 1882.48 228.29 1581.42 276.757C1280.36 325.224 1138.94 267.18 1043.28 161.816C947.631 56.4502 690.86 67.4901 461.756 109.442C232.641 151.397 98.2452 67.6501 61.0203 0.00012207C61.0003 -0.00987793 61.3907 1075.61 61.3907 1075.61L1982.96 1075.64L1983 468.234Z" fill="url(#paint0_linear_205_23)"/>
<path d="M1961.92 468.082C1961.92 468.082 1866.56 263.889 1560.34 306.935C1254.11 349.981 1140.29 339.035 1015.64 210.043C890.987 81.0511 671.342 102.503 442.187 142.977C213.043 183.451 81.6596 74.8201 40.0206 0.0101318C39.9806 2.41013 40.1008 1075.63 40.1008 1075.63L1961.9 1075.62L1961.92 468.082Z" fill="url(#paint1_linear_205_23)"/>
<path opacity="0.14" d="M1936.24 387.897C1936.24 387.897 1761.83 779.943 1118.04 642.929C474.247 505.915 247.805 565.462 60.8903 1106.91" stroke="#397DF4" stroke-width="128"/>
<defs>
<linearGradient id="paint0_linear_205_23" x1="1022.01" y1="1075.64" x2="1022.01" y2="0.00012207" gradientUnits="userSpaceOnUse">
<stop stop-color="#005CFF"/>
<stop offset="1" stop-color="#005CFF"/>
</linearGradient>
<linearGradient id="paint1_linear_205_23" x1="1000.97" y1="1075.63" x2="1000.97" y2="0.0101318" gradientUnits="userSpaceOnUse">
<stop stop-color="#1967F0"/>
<stop offset="1" stop-color="#005CFF"/>
</linearGradient>
</defs>
</svg>
